<svg xmlns="http://www.w3.org/2000/svg" viewBox="0 0 29.3 29.3"><defs><style>.cls-1{fill:#14499e;}</style></defs><g id="Layer_2" data-name="Layer 2"><g id="Layer_1-2" data-name="Layer 1"><path class="cls-1" d="M29.2,20.7a8.73,8.73,0,0,1-2.36,6.14A8.73,8.73,0,0,1,20.7,29.2c-2,.12-4,.1-6,.1s-4,0-6.05-.1a8.73,8.73,0,0,1-6.14-2.36A8.68,8.68,0,0,1,.1,20.7c-.12-2-.1-4-.1-6s0-4,.1-6.05A8.68,8.68,0,0,1,2.46,2.46,8.68,8.68,0,0,1,8.6.1c2-.12,4-.1,6.05-.1s4,0,6,.1a8.68,8.68,0,0,1,6.14,2.36A8.73,8.73,0,0,1,29.2,8.6c.12,2,.1,4,.1,6.05S29.32,18.67,29.2,20.7ZM6,3.22A5,5,0,0,0,3.22,6c-.76,1.93-.59,6.5-.59,8.64s-.17,6.71.59,8.64A4.83,4.83,0,0,0,4.33,25,4.67,4.67,0,0,0,6,26.07c1.93.77,6.5.6,8.64.6s6.71.17,8.64-.6a4.92,4.92,0,0,0,2.78-2.78c.77-1.93.6-6.5.6-8.64s.17-6.71-.6-8.64A4.67,4.67,0,0,0,25,4.33a4.83,4.83,0,0,0-1.68-1.11c-1.93-.76-6.5-.59-8.64-.59S7.94,2.46,6,3.22Zm8.64,18.94a7.52,7.52,0,1,1,7.51-7.51A7.5,7.5,0,0,1,14.65,22.16Zm0-12.39a4.88,4.88,0,1,0,4.88,4.88A4.89,4.89,0,0,0,14.65,9.77Zm7.82-1.19a1.76,1.76,0,1,1,1.75-1.75A1.75,1.75,0,0,1,22.47,8.58Z"/></g></g></svg>