<svg xmlns="http://www.w3.org/2000/svg" viewBox="0 0 34.18 24.03"><defs><style>.cls-1{fill:#14499e;}</style></defs><g id="Layer_2" data-name="Layer 2"><g id="Layer_1-2" data-name="Layer 1"><path class="cls-1" d="M29.05.34a4.86,4.86,0,0,1,3.43,1.45,6,6,0,0,1,1.36,3.4,46.3,46.3,0,0,1,.34,5.53v2.59a46.3,46.3,0,0,1-.34,5.53,6.12,6.12,0,0,1-1.36,3.4,4.91,4.91,0,0,1-3.43,1.43s-4.77.36-12,.36C8.2,24,5.47,23.69,5.47,23.69A5.75,5.75,0,0,1,1.7,22.24a6.12,6.12,0,0,1-1.36-3.4A46.3,46.3,0,0,1,0,13.31V10.72A46.3,46.3,0,0,1,.34,5.19,6,6,0,0,1,1.7,1.79,4.85,4.85,0,0,1,5.13.34S9.9,0,17.09,0,29.05.34,29.05.34ZM22.79,11.67,13.56,6.85v9.59Z"/></g></g></svg>